<svg xmlns="http://www.w3.org/2000/svg" class="graphdiagram" viewBox="-2538.4211230719034 293.4284613223151 4276.855788615945 2082.8843126376355"><g class="layer relationships"><g class="related-pair"><g class="relationship" transform="translate(1049.4416150568968,2117.229790440773) rotate(-157.10763764698547)"><path class="relationship" d="M 89.93445673714466 4 L 1661.1078452064005 4 L 1661.1078452064005 16 L 1693.1078452064005 0 L 1661.1078452064005 -16 L 1661.1078452064005 -4 L 89.93445673714466 -4 Z" fill="rgb(0, 0, 0)" stroke="rgb(51, 51, 51)" stroke-width="0px"/><text class="type" text-anchor="middle" baseline-shift="30%" alignment-baseline="alphabetic" transform="rotate(180)" x="-875.5211509717725" y="0" font-size="50px" font-family="&quot;Gill Sans&quot;, &quot;Gill Sans MT&quot;, Calibri, sans-serif">FROM_PRODUCT</text></g></g><g class="related-pair"><g class="relationship" transform="translate(-624.279636507477,670.1541258205096) rotate(90)"><path class="relationship" d="M 102.6426809790168 4 L 584.620010871276 4 L 584.620010871276 16 L 616.620010871276 0 L 584.620010871276 -16 L 584.620010871276 -4 L 102.6426809790168 -4 Z" fill="rgb(0, 0, 0)" stroke="rgb(51, 51, 51)" stroke-width="0px"/><text class="type" text-anchor="middle" baseline-shift="30%" alignment-baseline="alphabetic" x="343.63134592514643" y="0" font-size="50px" font-family="&quot;Gill Sans&quot;, &quot;Gill Sans MT&quot;, Calibri, sans-serif">HAS_PRODUCT</text></g></g><g class="related-pair"><g class="relationship" transform="translate(1049.4416150568968,2117.229790440773) rotate(-139.15377148010106)"><path class="relationship" d="M 89.93445673714466 4 L 2077.905805964126 4 L 2077.905805964126 16 L 2109.905805964126 0 L 2077.905805964126 -16 L 2077.905805964126 -4 L 89.93445673714466 -4 Z" fill="rgb(0, 0, 0)" stroke="rgb(51, 51, 51)" stroke-width="0px"/><text class="type" text-anchor="middle" baseline-shift="30%" alignment-baseline="alphabetic" transform="rotate(180)" x="-1083.9201313506353" y="0" font-size="50px" font-family="&quot;Gill Sans&quot;, &quot;Gill Sans MT&quot;, Calibri, sans-serif">DONE_ON</text></g></g><g class="related-pair"><g class="relationship" transform="translate(-2095.2761387121836,2117.229790440773) rotate(-25.66209520823031)"><path class="relationship" d="M 102.63131248471971 4 L 1476.2567099886214 4 L 1476.2567099886214 16 L 1508.2567099886214 0 L 1476.2567099886214 -16 L 1476.2567099886214 -4 L 102.63131248471971 -4 Z" fill="rgb(0, 0, 0)" stroke="rgb(51, 51, 51)" stroke-width="0px"/><text class="type" text-anchor="middle" baseline-shift="30%" alignment-baseline="alphabetic" x="789.4440112366706" y="0" font-size="50px" font-family="&quot;Gill Sans&quot;, &quot;Gill Sans MT&quot;, Calibri, sans-serif">HAS_SALE_PRODUCT</text></g></g><g class="related-pair"><g class="relationship" transform="translate(1049.4416150568968,2117.229790440773) rotate(180)"><path class="relationship" d="M 89.93445673714466 4 L 3010.0864412843607 4 L 3010.0864412843607 16 L 3042.0864412843607 0 L 3010.0864412843607 -16 L 3010.0864412843607 -4 L 89.93445673714466 -4 Z" fill="rgb(0, 0, 0)" stroke="rgb(51, 51, 51)" stroke-width="0px"/><text class="type" text-anchor="middle" baseline-shift="30%" alignment-baseline="alphabetic" transform="rotate(180)" x="-1550.0104490107528" y="0" font-size="50px" font-family="&quot;Gill Sans&quot;, &quot;Gill Sans MT&quot;, Calibri, sans-serif">FROM_CLIENT</text></g></g><g class="related-pair"><g class="relationship" transform="translate(-624.279636507477,670.1541258205096) rotate(135.4696704738214)"><path class="relationship" d="M 102.6426809790168 4 L 1928.826631994561 4 L 1928.826631994561 16 L 1960.826631994561 0 L 1928.826631994561 -16 L 1928.826631994561 -4 L 102.6426809790168 -4 Z" fill="rgb(0, 0, 0)" stroke="rgb(51, 51, 51)" stroke-width="0px"/><text class="type" text-anchor="middle" baseline-shift="30%" alignment-baseline="alphabetic" transform="rotate(180)" x="-1015.7346564867889" y="0" font-size="50px" font-family="&quot;Gill Sans&quot;, &quot;Gill Sans MT&quot;, Calibri, sans-serif">HAS_CLIENT</text></g></g></g><g class="layer nodes"><circle class="node node-id-0" r="108.71102322982364" fill="rgb(255, 255, 255)" stroke="rgb(0, 0, 0)" stroke-width="8px" cx="-624.279636507477" cy="1410.4851599216095"/><circle class="node node-id-1" r="87.63131248471971" fill="rgb(255, 255, 255)" stroke="rgb(0, 0, 0)" stroke-width="8px" cx="-2095.2761387121836" cy="2117.229790440773"/><circle class="node node-id-4" r="74.93445673714466" fill="rgb(255, 255, 255)" stroke="rgb(0, 0, 0)" stroke-width="8px" cx="1049.4416150568968" cy="2117.229790440773"/><circle class="node node-id-5" r="87.6426809790168" fill="rgb(255, 255, 255)" stroke="rgb(0, 0, 0)" stroke-width="8px" cx="-624.279636507477" cy="670.1541258205096"/><g class="caption"><text class="caption node" text-anchor="middle" alignment-baseline="central" x="-624.279636507477" y="1410.4851599216095" fill="rgb(51, 51, 51)" font-size="50px" font-family="&quot;Gill Sans&quot;, &quot;Gill Sans MT&quot;, Calibri, sans-serif">Product</text></g><g class="caption"><text class="caption node" text-anchor="middle" alignment-baseline="central" x="-2095.2761387121836" y="2117.229790440773" fill="rgb(51, 51, 51)" font-size="50px" font-family="&quot;Gill Sans&quot;, &quot;Gill Sans MT&quot;, Calibri, sans-serif">Client</text></g><g class="caption"><text class="caption node" text-anchor="middle" alignment-baseline="central" x="1049.4416150568968" y="2117.229790440773" fill="rgb(51, 51, 51)" font-size="50px" font-family="&quot;Gill Sans&quot;, &quot;Gill Sans MT&quot;, Calibri, sans-serif">Sale</text></g><g class="caption"><text class="caption node" text-anchor="middle" alignment-baseline="central" x="-624.279636507477" y="670.1541258205096" fill="rgb(51, 51, 51)" font-size="50px" font-family="&quot;Gill Sans&quot;, &quot;Gill Sans MT&quot;, Calibri, sans-serif">Stoke</text></g></g><g class="layer properties"><g class="speech-bubble node-speech-bubble" transform="translate(-624.279636507477,1519.1961831514332) "><path class="speech-bubble-outline" transform="scale(1,1) " d="M 0 0 L -10 20 L -318.27392578125 20 A 10 10 0 0 0 -328.27392578125 30 L -328.27392578125 230 A 10 10 0 0 0 -318.27392578125 240 L 318.27392578125 240 A 10 10 0 0 0 328.27392578125 230 L 328.27392578125 30 A 10 10 0 0 0 318.27392578125 20 L 10 20 Z" fill="rgb(255, 255, 255)" stroke="rgb(0, 0, 0)" stroke-width="3px"/><text class="speech-bubble-content property-key" x="137.60986328125" y="55" alignment-baseline="central" text-anchor="end" font-size="50px" font-family="&quot;Gill Sans&quot;, &quot;Gill Sans MT&quot;, Calibri, sans-serif" xml:space="preserve">name: </text><text class="speech-bubble-content property-key" x="137.60986328125" y="105" alignment-baseline="central" text-anchor="end" font-size="50px" font-family="&quot;Gill Sans&quot;, &quot;Gill Sans MT&quot;, Calibri, sans-serif" xml:space="preserve">quantity: </text><text class="speech-bubble-content property-key" x="137.60986328125" y="155" alignment-baseline="central" text-anchor="end" font-size="50px" font-family="&quot;Gill Sans&quot;, &quot;Gill Sans MT&quot;, Calibri, sans-serif" xml:space="preserve">quantity_disponible: </text><text class="speech-bubble-content property-key" x="137.60986328125" y="205" alignment-baseline="central" text-anchor="end" font-size="50px" font-family="&quot;Gill Sans&quot;, &quot;Gill Sans MT&quot;, Calibri, sans-serif" xml:space="preserve">price: </text><text class="speech-bubble-content property-value" x="137.60986328125" y="55" alignment-baseline="central" font-size="50px" font-family="&quot;Gill Sans&quot;, &quot;Gill Sans MT&quot;, Calibri, sans-serif">string,</text><text class="speech-bubble-content property-value" x="137.60986328125" y="105" alignment-baseline="central" font-size="50px" font-family="&quot;Gill Sans&quot;, &quot;Gill Sans MT&quot;, Calibri, sans-serif">number,</text><text class="speech-bubble-content property-value" x="137.60986328125" y="155" alignment-baseline="central" font-size="50px" font-family="&quot;Gill Sans&quot;, &quot;Gill Sans MT&quot;, Calibri, sans-serif">number,</text><text class="speech-bubble-content property-value" x="137.60986328125" y="205" alignment-baseline="central" font-size="50px" font-family="&quot;Gill Sans&quot;, &quot;Gill Sans MT&quot;, Calibri, sans-serif">number</text></g><g class="speech-bubble node-speech-bubble" transform="translate(-2182.9074511969034,2117.229790440773) "><path class="speech-bubble-outline" transform="scale(-1,1) " d="M 0 0 L 20 -10 L 20 -75 A 10 10 0 0 1 30 -85 L 344.013671875 -85 A 10 10 0 0 1 354.013671875 -75 L 354.013671875 75 A 10 10 0 0 1 344.013671875 85 L 30 85 A 10 10 0 0 1 20 75 L 20 10 Z" fill="rgb(255, 255, 255)" stroke="rgb(0, 0, 0)" stroke-width="3px"/><text class="speech-bubble-content property-key" x="-166.1572265625" y="-50" alignment-baseline="central" text-anchor="end" font-size="50px" font-family="&quot;Gill Sans&quot;, &quot;Gill Sans MT&quot;, Calibri, sans-serif" xml:space="preserve">name: </text><text class="speech-bubble-content property-key" x="-166.1572265625" y="0" alignment-baseline="central" text-anchor="end" font-size="50px" font-family="&quot;Gill Sans&quot;, &quot;Gill Sans MT&quot;, Calibri, sans-serif" xml:space="preserve">cpf: </text><text class="speech-bubble-content property-key" x="-166.1572265625" y="50" alignment-baseline="central" text-anchor="end" font-size="50px" font-family="&quot;Gill Sans&quot;, &quot;Gill Sans MT&quot;, Calibri, sans-serif" xml:space="preserve">adress: </text><text class="speech-bubble-content property-value" x="-166.1572265625" y="-50" alignment-baseline="central" font-size="50px" font-family="&quot;Gill Sans&quot;, &quot;Gill Sans MT&quot;, Calibri, sans-serif">string,</text><text class="speech-bubble-content property-value" x="-166.1572265625" y="0" alignment-baseline="central" font-size="50px" font-family="&quot;Gill Sans&quot;, &quot;Gill Sans MT&quot;, Calibri, sans-serif">string,</text><text class="speech-bubble-content property-value" x="-166.1572265625" y="50" alignment-baseline="central" font-size="50px" font-family="&quot;Gill Sans&quot;, &quot;Gill Sans MT&quot;, Calibri, sans-serif">string</text></g><g class="speech-bubble node-speech-bubble" transform="translate(1124.3760717940415,2117.229790440773) "><path class="speech-bubble-outline" transform="scale(1,1) " d="M 0 0 L 20 -10 L 20 -100 A 10 10 0 0 1 30 -110 L 602.55859375 -110 A 10 10 0 0 1 612.55859375 -100 L 612.55859375 100 A 10 10 0 0 1 602.55859375 110 L 30 110 A 10 10 0 0 1 20 100 L 20 10 Z" fill="rgb(255, 255, 255)" stroke="rgb(0, 0, 0)" stroke-width="3px"/><text class="speech-bubble-content property-key" x="421.89453125" y="-75" alignment-baseline="central" text-anchor="end" font-size="50px" font-family="&quot;Gill Sans&quot;, &quot;Gill Sans MT&quot;, Calibri, sans-serif" xml:space="preserve">type_payment: </text><text class="speech-bubble-content property-key" x="421.89453125" y="-25" alignment-baseline="central" text-anchor="end" font-size="50px" font-family="&quot;Gill Sans&quot;, &quot;Gill Sans MT&quot;, Calibri, sans-serif" xml:space="preserve">quantity_parcels: </text><text class="speech-bubble-content property-key" x="421.89453125" y="25" alignment-baseline="central" text-anchor="end" font-size="50px" font-family="&quot;Gill Sans&quot;, &quot;Gill Sans MT&quot;, Calibri, sans-serif" xml:space="preserve">total_sale: </text><text class="speech-bubble-content property-value" x="421.89453125" y="-75" alignment-baseline="central" font-size="50px" font-family="&quot;Gill Sans&quot;, &quot;Gill Sans MT&quot;, Calibri, sans-serif">string,</text><text class="speech-bubble-content property-value" x="421.89453125" y="-25" alignment-baseline="central" font-size="50px" font-family="&quot;Gill Sans&quot;, &quot;Gill Sans MT&quot;, Calibri, sans-serif">number,</text><text class="speech-bubble-content property-value" x="421.89453125" y="25" alignment-baseline="central" font-size="50px" font-family="&quot;Gill Sans&quot;, &quot;Gill Sans MT&quot;, Calibri, sans-serif">number,</text><text class="speech-bubble-content property-key" x="421.89453125" y="75" alignment-baseline="central" text-anchor="end" font-size="50px" font-family="&quot;Gill Sans&quot;, &quot;Gill Sans MT&quot;, Calibri, sans-serif" xml:space="preserve">quantity_sale: </text><text class="speech-bubble-content property-value" x="421.89453125" y="75" alignment-baseline="central" font-size="50px" font-family="&quot;Gill Sans&quot;, &quot;Gill Sans MT&quot;, Calibri, sans-serif">number</text></g><g class="speech-bubble node-speech-bubble" transform="translate(-624.279636507477,582.5114448414929) "><path class="speech-bubble-outline" transform="scale(1,-1) " d="M 0 0 L -10 20 L -157.0068359375 20 A 10 10 0 0 0 -167.0068359375 30 L -167.0068359375 130 A 10 10 0 0 0 -157.0068359375 140 L 157.0068359375 140 A 10 10 0 0 0 167.0068359375 130 L 167.0068359375 30 A 10 10 0 0 0 157.0068359375 20 L 10 20 Z" fill="rgb(255, 255, 255)" stroke="rgb(0, 0, 0)" stroke-width="3px"/><text class="speech-bubble-content property-key" x="20.849609375" y="-105" alignment-baseline="central" text-anchor="end" font-size="50px" font-family="&quot;Gill Sans&quot;, &quot;Gill Sans MT&quot;, Calibri, sans-serif" xml:space="preserve">name: </text><text class="speech-bubble-content property-key" x="20.849609375" y="-55" alignment-baseline="central" text-anchor="end" font-size="50px" font-family="&quot;Gill Sans&quot;, &quot;Gill Sans MT&quot;, Calibri, sans-serif" xml:space="preserve">adress: </text><text class="speech-bubble-content property-value" x="20.849609375" y="-105" alignment-baseline="central" font-size="50px" font-family="&quot;Gill Sans&quot;, &quot;Gill Sans MT&quot;, Calibri, sans-serif">string,</text><text class="speech-bubble-content property-value" x="20.849609375" y="-55" alignment-baseline="central" font-size="50px" font-family="&quot;Gill Sans&quot;, &quot;Gill Sans MT&quot;, Calibri, sans-serif">string</text></g><g class="speech-bubble relationship-speech-bubble" transform="translate(-624.279636507477,1013.7854717456561) "><path class="speech-bubble-outline" transform="scale(-1,1) " d="M 0 0 L 20 -10 L 20 -75 A 10 10 0 0 1 30 -85 L 666.5478515625 -85 A 10 10 0 0 1 676.5478515625 -75 L 676.5478515625 75 A 10 10 0 0 1 666.5478515625 85 L 30 85 A 10 10 0 0 1 20 75 L 20 10 Z" fill="rgb(255, 255, 255)" stroke="rgb(0, 0, 0)" stroke-width="3px"/><text class="speech-bubble-content property-key" x="-210.6640625" y="-50" alignment-baseline="central" text-anchor="end" font-size="50px" font-family="&quot;Gill Sans&quot;, &quot;Gill Sans MT&quot;, Calibri, sans-serif" xml:space="preserve">quantity_disponible: </text><text class="speech-bubble-content property-key" x="-210.6640625" y="0" alignment-baseline="central" text-anchor="end" font-size="50px" font-family="&quot;Gill Sans&quot;, &quot;Gill Sans MT&quot;, Calibri, sans-serif" xml:space="preserve">sum_quantity_sale: </text><text class="speech-bubble-content property-key" x="-210.6640625" y="50" alignment-baseline="central" text-anchor="end" font-size="50px" font-family="&quot;Gill Sans&quot;, &quot;Gill Sans MT&quot;, Calibri, sans-serif" xml:space="preserve">sales_count: </text><text class="speech-bubble-content property-value" x="-210.6640625" y="-50" alignment-baseline="central" font-size="50px" font-family="&quot;Gill Sans&quot;, &quot;Gill Sans MT&quot;, Calibri, sans-serif">number,</text><text class="speech-bubble-content property-value" x="-210.6640625" y="0" alignment-baseline="central" font-size="50px" font-family="&quot;Gill Sans&quot;, &quot;Gill Sans MT&quot;, Calibri, sans-serif">number,</text><text class="speech-bubble-content property-value" x="-210.6640625" y="50" alignment-baseline="central" font-size="50px" font-family="&quot;Gill Sans&quot;, &quot;Gill Sans MT&quot;, Calibri, sans-serif">number</text></g><g class="speech-bubble relationship-speech-bubble" transform="translate(-1383.69995029979,1775.3509011218594) "><path class="speech-bubble-outline" transform="scale(1,1) " d="M 0 0 L 30 20 L 644.2333984375 20 A 10 10 0 0 1 654.2333984375 30 L 654.2333984375 80 A 10 10 0 0 1 644.2333984375 90 L 30 90 A 10 10 0 0 1 20 80 L 20 30 Z" fill="rgb(255, 255, 255)" stroke="rgb(0, 0, 0)" stroke-width="3px"/><text class="speech-bubble-content property-key" x="474.7021484375" y="55" alignment-baseline="central" text-anchor="end" font-size="50px" font-family="&quot;Gill Sans&quot;, &quot;Gill Sans MT&quot;, Calibri, sans-serif" xml:space="preserve">sum_quantity_sale: </text><text class="speech-bubble-content property-value" x="474.7021484375" y="55" alignment-baseline="central" font-size="50px" font-family="&quot;Gill Sans&quot;, &quot;Gill Sans MT&quot;, Calibri, sans-serif">number</text></g><g class="speech-bubble relationship-speech-bubble" transform="translate(-1348.3758706263734,1382.4753568133585) "><path class="speech-bubble-outline" transform="scale(1,1) " d="M 0 0 L 30 20 L 563.6181640625 20 A 10 10 0 0 1 573.6181640625 30 L 573.6181640625 80 A 10 10 0 0 1 563.6181640625 90 L 30 90 A 10 10 0 0 1 20 80 L 20 30 Z" fill="rgb(255, 255, 255)" stroke="rgb(0, 0, 0)" stroke-width="3px"/><text class="speech-bubble-content property-key" x="394.0869140625" y="55" alignment-baseline="central" text-anchor="end" font-size="50px" font-family="&quot;Gill Sans&quot;, &quot;Gill Sans MT&quot;, Calibri, sans-serif" xml:space="preserve">sum_total_sale: </text><text class="speech-bubble-content property-value" x="394.0869140625" y="55" alignment-baseline="central" font-size="50px" font-family="&quot;Gill Sans&quot;, &quot;Gill Sans MT&quot;, Calibri, sans-serif">number</text></g></g><g class="layer overlay"><circle class="node overlay" r="112.71102322982364" stroke="none" fill="rgba(255, 255, 255, 0)" cx="-624.279636507477" cy="1410.4851599216095"/><circle class="node overlay" r="91.63131248471971" stroke="none" fill="rgba(255, 255, 255, 0)" cx="-2095.2761387121836" cy="2117.229790440773"/><circle class="node overlay" r="78.93445673714466" stroke="none" fill="rgba(255, 255, 255, 0)" cx="1049.4416150568968" cy="2117.229790440773"/><circle class="node overlay" r="91.6426809790168" stroke="none" fill="rgba(255, 255, 255, 0)" cx="-624.279636507477" cy="670.1541258205096"/><circle class="node ring" r="117.71102322982364" fill="none" stroke="rgba(255, 255, 255, 0)" stroke-width="10px" cx="-624.279636507477" cy="1410.4851599216095"/><circle class="node ring" r="96.63131248471971" fill="none" stroke="rgba(255, 255, 255, 0)" stroke-width="10px" cx="-2095.2761387121836" cy="2117.229790440773"/><circle class="node ring" r="83.93445673714466" fill="none" stroke="rgba(255, 255, 255, 0)" stroke-width="10px" cx="1049.4416150568968" cy="2117.229790440773"/><circle class="node ring" r="96.6426809790168" fill="none" stroke="rgba(255, 255, 255, 0)" stroke-width="10px" cx="-624.279636507477" cy="670.1541258205096"/><path class="relationship overlay" fill="rgba(255, 255, 255, 0)" stroke="rgba(255, 255, 255, 0)" stroke-width="10px" transform="translate(1049.4416150568968,2117.229790440773) rotate(-157.10763764698547)" d="M 89.93445673714466 4 L 1661.1078452064005 4 L 1661.1078452064005 16 L 1693.1078452064005 0 L 1661.1078452064005 -16 L 1661.1078452064005 -4 L 89.93445673714466 -4 Z"/><path class="relationship overlay" fill="rgba(255, 255, 255, 0)" stroke="rgba(255, 255, 255, 0)" stroke-width="10px" transform="translate(-624.279636507477,670.1541258205096) rotate(90)" d="M 102.6426809790168 4 L 584.620010871276 4 L 584.620010871276 16 L 616.620010871276 0 L 584.620010871276 -16 L 584.620010871276 -4 L 102.6426809790168 -4 Z"/><path class="relationship overlay" fill="rgba(255, 255, 255, 0)" stroke="rgba(255, 255, 255, 0)" stroke-width="10px" transform="translate(1049.4416150568968,2117.229790440773) rotate(-139.15377148010106)" d="M 89.93445673714466 4 L 2077.905805964126 4 L 2077.905805964126 16 L 2109.905805964126 0 L 2077.905805964126 -16 L 2077.905805964126 -4 L 89.93445673714466 -4 Z"/><path class="relationship overlay" fill="rgba(255, 255, 255, 0)" stroke="rgba(255, 255, 255, 0)" stroke-width="10px" transform="translate(-2095.2761387121836,2117.229790440773) rotate(-25.66209520823031)" d="M 102.63131248471971 4 L 1476.2567099886214 4 L 1476.2567099886214 16 L 1508.2567099886214 0 L 1476.2567099886214 -16 L 1476.2567099886214 -4 L 102.63131248471971 -4 Z"/><path class="relationship overlay" fill="rgba(255, 255, 255, 0)" stroke="rgba(255, 255, 255, 0)" stroke-width="10px" transform="translate(1049.4416150568968,2117.229790440773) rotate(180)" d="M 89.93445673714466 4 L 3010.0864412843607 4 L 3010.0864412843607 16 L 3042.0864412843607 0 L 3010.0864412843607 -16 L 3010.0864412843607 -4 L 89.93445673714466 -4 Z"/><path class="relationship overlay" fill="rgba(255, 255, 255, 0)" stroke="rgba(255, 255, 255, 0)" stroke-width="10px" transform="translate(-624.279636507477,670.1541258205096) rotate(135.4696704738214)" d="M 102.6426809790168 4 L 1928.826631994561 4 L 1928.826631994561 16 L 1960.826631994561 0 L 1928.826631994561 -16 L 1928.826631994561 -4 L 102.6426809790168 -4 Z"/></g></svg>