<svg xmlns="http://www.w3.org/2000/svg" class="graphdiagram" viewBox="-3221.923103410141 -407.45797729492085 5528.793495015049 2839.19103180156"><g class="layer relationships"><g class="related-pair"><g class="relationship" transform="translate(1103.1540174006475,2087.2463920032737) rotate(-165.44388478072938)"><path class="relationship" d="M 89.93445673714466 4 L 1629.0086426881433 4 L 1629.0086426881433 16 L 1661.0086426881433 0 L 1629.0086426881433 -16 L 1629.0086426881433 -4 L 89.93445673714466 -4 Z" fill="rgb(0, 0, 0)" stroke="rgb(51, 51, 51)" stroke-width="0px"/><text class="type" text-anchor="middle" baseline-shift="30%" alignment-baseline="alphabetic" transform="rotate(180)" x="-859.4715497126439" y="0" font-size="50px" font-family="&quot;Gill Sans&quot;, &quot;Gill Sans MT&quot;, Calibri, sans-serif">FROM_PRODUCT</text></g></g><g class="related-pair"><g class="relationship" transform="translate(-624.279636507477,953.7176023830069) rotate(90)"><path class="relationship" d="M 102.6426809790168 4 L 529.2675938790899 4 L 529.2675938790899 16 L 561.2675938790899 0 L 529.2675938790899 -16 L 529.2675938790899 -4 L 102.6426809790168 -4 Z" fill="rgb(0, 0, 0)" stroke="rgb(51, 51, 51)" stroke-width="0px"/><text class="type" text-anchor="middle" baseline-shift="30%" alignment-baseline="alphabetic" x="315.95513742905337" y="0" font-size="50px" font-family="&quot;Gill Sans&quot;, &quot;Gill Sans MT&quot;, Calibri, sans-serif">HAS_PRODUCT</text></g></g><g class="related-pair"><g class="relationship" transform="translate(1103.1540174006475,2087.2463920032737) rotate(-146.72741991959714)"><path class="relationship" d="M 89.93445673714466 4 L 1931.4924901925988 4 L 1931.4924901925988 16 L 1963.4924901925988 0 L 1931.4924901925988 -16 L 1931.4924901925988 -4 L 89.93445673714466 -4 Z" fill="rgb(0, 0, 0)" stroke="rgb(51, 51, 51)" stroke-width="0px"/><text class="type" text-anchor="middle" baseline-shift="30%" alignment-baseline="alphabetic" transform="rotate(180)" x="-1010.7134734648716" y="0" font-size="50px" font-family="&quot;Gill Sans&quot;, &quot;Gill Sans MT&quot;, Calibri, sans-serif">DONE_ON</text></g></g><g class="related-pair"><g class="relationship" transform="translate(-2278.315933634056,2087.2463920032737) rotate(-15.172849402783877)"><path class="relationship" d="M 102.63131248471971 4 L 1558.0664796777648 4 L 1558.0664796777648 16 L 1590.0664796777648 0 L 1558.0664796777648 -16 L 1558.0664796777648 -4 L 102.63131248471971 -4 Z" fill="rgb(0, 0, 0)" stroke="rgb(51, 51, 51)" stroke-width="0px"/><text class="type" text-anchor="middle" baseline-shift="30%" alignment-baseline="alphabetic" x="830.3488960812423" y="0" font-size="50px" font-family="&quot;Gill Sans&quot;, &quot;Gill Sans MT&quot;, Calibri, sans-serif">HAS_SALE_PRODUCT</text></g></g><g class="related-pair"><g class="relationship" transform="translate(1103.1540174006475,2087.2463920032737) rotate(180)"><path class="relationship" d="M 89.93445673714466 4 L 3246.838638549984 4 L 3246.838638549984 16 L 3278.838638549984 0 L 3246.838638549984 -16 L 3246.838638549984 -4 L 89.93445673714466 -4 Z" fill="rgb(0, 0, 0)" stroke="rgb(51, 51, 51)" stroke-width="0px"/><text class="type" text-anchor="middle" baseline-shift="30%" alignment-baseline="alphabetic" transform="rotate(180)" x="-1668.3865476435644" y="0" font-size="50px" font-family="&quot;Gill Sans&quot;, &quot;Gill Sans MT&quot;, Calibri, sans-serif">FROM_CLIENT</text></g></g><g class="related-pair"><g class="relationship" transform="translate(-624.279636507477,953.7176023830069) rotate(145.5767415151371)"><path class="relationship" d="M 102.6426809790168 4 L 1870.5428916956032 4 L 1870.5428916956032 16 L 1902.5428916956032 0 L 1870.5428916956032 -16 L 1870.5428916956032 -4 L 102.6426809790168 -4 Z" fill="rgb(0, 0, 0)" stroke="rgb(51, 51, 51)" stroke-width="0px"/><text class="type" text-anchor="middle" baseline-shift="30%" alignment-baseline="alphabetic" transform="rotate(180)" x="-986.5927863373099" y="0" font-size="50px" font-family="&quot;Gill Sans&quot;, &quot;Gill Sans MT&quot;, Calibri, sans-serif">HAS_CLIENT</text></g></g><g class="related-pair"><g class="relationship" transform="translate(1103.1540174006475,568.4974021911622) rotate(90)"><path class="relationship" d="M 90.76588348951427 4 L 1396.8145330749667 4 L 1396.8145330749667 16 L 1428.8145330749667 0 L 1396.8145330749667 -16 L 1396.8145330749667 -4 L 90.76588348951427 -4 Z" fill="rgb(0, 0, 0)" stroke="rgb(51, 51, 51)" stroke-width="0px"/><text class="type" text-anchor="middle" baseline-shift="30%" alignment-baseline="alphabetic" x="743.7902082822405" y="0" font-size="50px" font-family="&quot;Gill Sans&quot;, &quot;Gill Sans MT&quot;, Calibri, sans-serif">HAS_DONE_SALE</text></g></g><g class="related-pair"><g class="relationship" transform="translate(1103.1540174006475,568.4974021911622) rotate(167.42865416240923)"><path class="relationship" d="M 90.76588348951427 4 L 1635.222181458288 4 L 1635.222181458288 16 L 1667.222181458288 0 L 1635.222181458288 -16 L 1635.222181458288 -4 L 90.76588348951427 -4 Z" fill="rgb(0, 0, 0)" stroke="rgb(51, 51, 51)" stroke-width="0px"/><text class="type" text-anchor="middle" baseline-shift="30%" alignment-baseline="alphabetic" transform="rotate(180)" x="-862.9940324739013" y="0" font-size="50px" font-family="&quot;Gill Sans&quot;, &quot;Gill Sans MT&quot;, Calibri, sans-serif">WORKS_ON</text></g></g><g class="related-pair"><g class="relationship" transform="translate(-2278.315933634056,2087.2463920032737) rotate(-90)"><path class="relationship" d="M 102.63131248471971 4 L 1402.9628062832667 4 L 1402.9628062832667 16 L 1434.9628062832667 0 L 1402.9628062832667 -16 L 1402.9628062832667 -4 L 102.63131248471971 -4 Z" fill="rgb(0, 0, 0)" stroke="rgb(51, 51, 51)" stroke-width="0px"/><text class="type" text-anchor="middle" baseline-shift="30%" alignment-baseline="alphabetic" x="752.7970593839932" y="0" font-size="50px" font-family="&quot;Gill Sans&quot;, &quot;Gill Sans MT&quot;, Calibri, sans-serif">LIVES_ON</text></g></g><g class="related-pair"><g class="relationship" transform="translate(-624.279636507477,953.7176023830069) rotate(-166.88968563305005)"><path class="relationship" d="M 102.6426809790168 4 L 1582.516108422753 4 L 1582.516108422753 16 L 1614.516108422753 0 L 1582.516108422753 -16 L 1582.516108422753 -4 L 102.6426809790168 -4 Z" fill="rgb(0, 0, 0)" stroke="rgb(51, 51, 51)" stroke-width="0px"/><text class="type" text-anchor="middle" baseline-shift="30%" alignment-baseline="alphabetic" transform="rotate(180)" x="-842.5793947008849" y="0" font-size="50px" font-family="&quot;Gill Sans&quot;, &quot;Gill Sans MT&quot;, Calibri, sans-serif">LOCALED_ON</text></g></g><g class="related-pair"><g class="relationship" transform="translate(1103.1540174006475,568.4974021911622) rotate(180)"><path class="relationship" d="M 90.76588348951427 4 L 3265.6837675058587 4 L 3265.6837675058587 16 L 3297.6837675058587 0 L 3265.6837675058587 -16 L 3265.6837675058587 -4 L 90.76588348951427 -4 Z" fill="rgb(0, 0, 0)" stroke="rgb(51, 51, 51)" stroke-width="0px"/><text class="type" text-anchor="middle" baseline-shift="30%" alignment-baseline="alphabetic" transform="rotate(180)" x="-1678.2248254976864" y="0" font-size="50px" font-family="&quot;Gill Sans&quot;, &quot;Gill Sans MT&quot;, Calibri, sans-serif">LIVES_ON</text></g></g><g class="related-pair"><g class="relationship" transform="translate(1103.1540174006475,568.4974021911622) rotate(-172.18192205686032)"><path class="relationship" d="M 90.76588348951427 4 L 3297.4095232135783 4 L 3297.4095232135783 16 L 3329.4095232135783 0 L 3297.4095232135783 -16 L 3297.4095232135783 -4 L 90.76588348951427 -4 Z" fill="rgb(0, 0, 0)" stroke="rgb(51, 51, 51)" stroke-width="0px"/><text class="type" text-anchor="middle" baseline-shift="30%" alignment-baseline="alphabetic" x="-1694.0877033515462" y="0" font-size="50px" font-family="&quot;Gill Sans&quot;, &quot;Gill Sans MT&quot;, Calibri, sans-serif" transform="rotate(180)">LIVES_ON</text></g></g></g><g class="layer nodes"><circle class="node node-id-0" r="108.71102322982364" fill="rgb(255, 255, 255)" stroke="rgb(0, 0, 0)" stroke-width="8px" cx="-624.279636507477" cy="1638.6962194919206"/><circle class="node node-id-1" r="87.63131248471971" fill="rgb(255, 255, 255)" stroke="rgb(0, 0, 0)" stroke-width="8px" cx="-2278.315933634056" cy="2087.2463920032737"/><circle class="node node-id-2" r="75.76588348951427" fill="rgb(255, 255, 255)" stroke="rgb(0, 0, 0)" stroke-width="8px" cx="1103.1540174006475" cy="568.4974021911622"/><circle class="node node-id-3" r="68.78618352884476" fill="rgb(255, 255, 255)" stroke="rgb(0, 0, 0)" stroke-width="8px" cx="-2278.315933634056" cy="568.4974021911622"/><circle class="node node-id-4" r="74.93445673714466" fill="rgb(255, 255, 255)" stroke="rgb(0, 0, 0)" stroke-width="8px" cx="1103.1540174006475" cy="2087.2463920032737"/><circle class="node node-id-5" r="87.6426809790168" fill="rgb(255, 255, 255)" stroke="rgb(0, 0, 0)" stroke-width="8px" cx="-624.279636507477" cy="953.7176023830069"/><g class="caption"><text class="caption node" text-anchor="middle" alignment-baseline="central" x="-624.279636507477" y="1638.6962194919206" fill="rgb(51, 51, 51)" font-size="50px" font-family="&quot;Gill Sans&quot;, &quot;Gill Sans MT&quot;, Calibri, sans-serif">Product</text></g><g class="caption"><text class="caption node" text-anchor="middle" alignment-baseline="central" x="-2278.315933634056" y="2087.2463920032737" fill="rgb(51, 51, 51)" font-size="50px" font-family="&quot;Gill Sans&quot;, &quot;Gill Sans MT&quot;, Calibri, sans-serif">Client</text></g><g class="caption"><text class="caption node" text-anchor="middle" alignment-baseline="central" x="1103.1540174006475" y="568.4974021911622" fill="rgb(51, 51, 51)" font-size="50px" font-family="&quot;Gill Sans&quot;, &quot;Gill Sans MT&quot;, Calibri, sans-serif">Staff</text></g><g class="caption"><text class="caption node" text-anchor="middle" alignment-baseline="central" x="-2278.315933634056" y="568.4974021911622" fill="rgb(51, 51, 51)" font-size="50px" font-family="&quot;Gill Sans&quot;, &quot;Gill Sans MT&quot;, Calibri, sans-serif">City</text></g><g class="caption"><text class="caption node" text-anchor="middle" alignment-baseline="central" x="1103.1540174006475" y="2087.2463920032737" fill="rgb(51, 51, 51)" font-size="50px" font-family="&quot;Gill Sans&quot;, &quot;Gill Sans MT&quot;, Calibri, sans-serif">Sale</text></g><g class="caption"><text class="caption node" text-anchor="middle" alignment-baseline="central" x="-624.279636507477" y="953.7176023830069" fill="rgb(51, 51, 51)" font-size="50px" font-family="&quot;Gill Sans&quot;, &quot;Gill Sans MT&quot;, Calibri, sans-serif">Stoke</text></g><circle class="node node-id-6" r="68.78618352884476" fill="rgb(255, 255, 255)" stroke="rgb(0, 0, 0)" stroke-width="8px" cx="-2278.315933634056" cy="104.20664978027449"/><g class="caption"><text class="caption node" text-anchor="middle" alignment-baseline="central" x="-2278.315933634056" y="104.20664978027449" fill="rgb(51, 51, 51)" font-size="50px" font-family="&quot;Gill Sans&quot;, &quot;Gill Sans MT&quot;, Calibri, sans-serif">City</text></g></g><g class="layer properties"><g class="speech-bubble node-speech-bubble" transform="translate(-624.279636507477,1747.4072427217443) "><path class="speech-bubble-outline" transform="scale(1,1) " d="M 0 0 L -10 20 L -312.70751953125 20 A 10 10 0 0 0 -322.70751953125 30 L -322.70751953125 230 A 10 10 0 0 0 -312.70751953125 240 L 312.70751953125 240 A 10 10 0 0 0 322.70751953125 230 L 322.70751953125 30 A 10 10 0 0 0 312.70751953125 20 L 10 20 Z" fill="rgb(255, 255, 255)" stroke="rgb(0, 0, 0)" stroke-width="3px"/><text class="speech-bubble-content property-key" x="143.17626953125" y="55" alignment-baseline="central" text-anchor="end" font-size="50px" font-family="&quot;Gill Sans&quot;, &quot;Gill Sans MT&quot;, Calibri, sans-serif" xml:space="preserve">name: </text><text class="speech-bubble-content property-key" x="143.17626953125" y="105" alignment-baseline="central" text-anchor="end" font-size="50px" font-family="&quot;Gill Sans&quot;, &quot;Gill Sans MT&quot;, Calibri, sans-serif" xml:space="preserve">quantity: </text><text class="speech-bubble-content property-key" x="143.17626953125" y="155" alignment-baseline="central" text-anchor="end" font-size="50px" font-family="&quot;Gill Sans&quot;, &quot;Gill Sans MT&quot;, Calibri, sans-serif" xml:space="preserve">quantity_disponible: </text><text class="speech-bubble-content property-key" x="143.17626953125" y="205" alignment-baseline="central" text-anchor="end" font-size="50px" font-family="&quot;Gill Sans&quot;, &quot;Gill Sans MT&quot;, Calibri, sans-serif" xml:space="preserve">price: </text><text class="speech-bubble-content property-value" x="143.17626953125" y="55" alignment-baseline="central" font-size="50px" font-family="&quot;Gill Sans&quot;, &quot;Gill Sans MT&quot;, Calibri, sans-serif">string,</text><text class="speech-bubble-content property-value" x="143.17626953125" y="105" alignment-baseline="central" font-size="50px" font-family="&quot;Gill Sans&quot;, &quot;Gill Sans MT&quot;, Calibri, sans-serif">integer,</text><text class="speech-bubble-content property-value" x="143.17626953125" y="155" alignment-baseline="central" font-size="50px" font-family="&quot;Gill Sans&quot;, &quot;Gill Sans MT&quot;, Calibri, sans-serif">integer,</text><text class="speech-bubble-content property-value" x="143.17626953125" y="205" alignment-baseline="central" font-size="50px" font-family="&quot;Gill Sans&quot;, &quot;Gill Sans MT&quot;, Calibri, sans-serif">number</text></g><g class="speech-bubble node-speech-bubble" transform="translate(-2340.2806289362784,2149.211087305496) "><path class="speech-bubble-outline" transform="scale(-1,1) " d="M 0 0 L 30 20 L 344.013671875 20 A 10 10 0 0 1 354.013671875 30 L 354.013671875 180 A 10 10 0 0 1 344.013671875 190 L 30 190 A 10 10 0 0 1 20 180 L 20 30 Z" fill="rgb(255, 255, 255)" stroke="rgb(0, 0, 0)" stroke-width="3px"/><text class="speech-bubble-content property-key" x="-166.1572265625" y="55" alignment-baseline="central" text-anchor="end" font-size="50px" font-family="&quot;Gill Sans&quot;, &quot;Gill Sans MT&quot;, Calibri, sans-serif" xml:space="preserve">name: </text><text class="speech-bubble-content property-key" x="-166.1572265625" y="105" alignment-baseline="central" text-anchor="end" font-size="50px" font-family="&quot;Gill Sans&quot;, &quot;Gill Sans MT&quot;, Calibri, sans-serif" xml:space="preserve">cpf: </text><text class="speech-bubble-content property-key" x="-166.1572265625" y="155" alignment-baseline="central" text-anchor="end" font-size="50px" font-family="&quot;Gill Sans&quot;, &quot;Gill Sans MT&quot;, Calibri, sans-serif" xml:space="preserve">adress: </text><text class="speech-bubble-content property-value" x="-166.1572265625" y="55" alignment-baseline="central" font-size="50px" font-family="&quot;Gill Sans&quot;, &quot;Gill Sans MT&quot;, Calibri, sans-serif">string,</text><text class="speech-bubble-content property-value" x="-166.1572265625" y="105" alignment-baseline="central" font-size="50px" font-family="&quot;Gill Sans&quot;, &quot;Gill Sans MT&quot;, Calibri, sans-serif">string,</text><text class="speech-bubble-content property-value" x="-166.1572265625" y="155" alignment-baseline="central" font-size="50px" font-family="&quot;Gill Sans&quot;, &quot;Gill Sans MT&quot;, Calibri, sans-serif">string</text></g><g class="speech-bubble node-speech-bubble" transform="translate(1156.728587398673,514.9228321931369) "><path class="speech-bubble-outline" transform="scale(1,-1) " d="M 0 0 L 30 20 L 446.8701171875 20 A 10 10 0 0 1 456.8701171875 30 L 456.8701171875 230 A 10 10 0 0 1 446.8701171875 240 L 30 240 A 10 10 0 0 1 20 230 L 20 30 Z" fill="rgb(255, 255, 255)" stroke="rgb(0, 0, 0)" stroke-width="3px"/><text class="speech-bubble-content property-key" x="310.712890625" y="-205" alignment-baseline="central" text-anchor="end" font-size="50px" font-family="&quot;Gill Sans&quot;, &quot;Gill Sans MT&quot;, Calibri, sans-serif" xml:space="preserve">name: </text><text class="speech-bubble-content property-key" x="310.712890625" y="-155" alignment-baseline="central" text-anchor="end" font-size="50px" font-family="&quot;Gill Sans&quot;, &quot;Gill Sans MT&quot;, Calibri, sans-serif" xml:space="preserve">department: </text><text class="speech-bubble-content property-key" x="310.712890625" y="-105" alignment-baseline="central" text-anchor="end" font-size="50px" font-family="&quot;Gill Sans&quot;, &quot;Gill Sans MT&quot;, Calibri, sans-serif" xml:space="preserve">e-mail: </text><text class="speech-bubble-content property-key" x="310.712890625" y="-55" alignment-baseline="central" text-anchor="end" font-size="50px" font-family="&quot;Gill Sans&quot;, &quot;Gill Sans MT&quot;, Calibri, sans-serif" xml:space="preserve">password: </text><text class="speech-bubble-content property-value" x="310.712890625" y="-205" alignment-baseline="central" font-size="50px" font-family="&quot;Gill Sans&quot;, &quot;Gill Sans MT&quot;, Calibri, sans-serif">string,</text><text class="speech-bubble-content property-value" x="310.712890625" y="-155" alignment-baseline="central" font-size="50px" font-family="&quot;Gill Sans&quot;, &quot;Gill Sans MT&quot;, Calibri, sans-serif">string,</text><text class="speech-bubble-content property-value" x="310.712890625" y="-105" alignment-baseline="central" font-size="50px" font-family="&quot;Gill Sans&quot;, &quot;Gill Sans MT&quot;, Calibri, sans-serif">string,</text><text class="speech-bubble-content property-value" x="310.712890625" y="-55" alignment-baseline="central" font-size="50px" font-family="&quot;Gill Sans&quot;, &quot;Gill Sans MT&quot;, Calibri, sans-serif">string,</text></g><g class="speech-bubble node-speech-bubble" transform="translate(-2326.955110459244,519.8582253659737) "><path class="speech-bubble-outline" transform="scale(-1,-1) " d="M 0 0 L 30 20 L 357.9052734375 20 A 10 10 0 0 1 367.9052734375 30 L 367.9052734375 180 A 10 10 0 0 1 357.9052734375 190 L 30 190 A 10 10 0 0 1 20 180 L 20 30 Z" fill="rgb(255, 255, 255)" stroke="rgb(0, 0, 0)" stroke-width="3px"/><text class="speech-bubble-content property-key" x="-166.1572265625" y="-155" alignment-baseline="central" text-anchor="end" font-size="50px" font-family="&quot;Gill Sans&quot;, &quot;Gill Sans MT&quot;, Calibri, sans-serif" xml:space="preserve">name: </text><text class="speech-bubble-content property-key" x="-166.1572265625" y="-105" alignment-baseline="central" text-anchor="end" font-size="50px" font-family="&quot;Gill Sans&quot;, &quot;Gill Sans MT&quot;, Calibri, sans-serif" xml:space="preserve">state: </text><text class="speech-bubble-content property-value" x="-166.1572265625" y="-155" alignment-baseline="central" font-size="50px" font-family="&quot;Gill Sans&quot;, &quot;Gill Sans MT&quot;, Calibri, sans-serif">string,</text><text class="speech-bubble-content property-value" x="-166.1572265625" y="-105" alignment-baseline="central" font-size="50px" font-family="&quot;Gill Sans&quot;, &quot;Gill Sans MT&quot;, Calibri, sans-serif">string,</text><text class="speech-bubble-content property-key" x="-166.1572265625" y="-55" alignment-baseline="central" text-anchor="end" font-size="50px" font-family="&quot;Gill Sans&quot;, &quot;Gill Sans MT&quot;, Calibri, sans-serif" xml:space="preserve">country: </text><text class="speech-bubble-content property-value" x="-166.1572265625" y="-55" alignment-baseline="central" font-size="50px" font-family="&quot;Gill Sans&quot;, &quot;Gill Sans MT&quot;, Calibri, sans-serif">string</text></g><g class="speech-bubble node-speech-bubble" transform="translate(1156.1406799040124,2140.233054506639) "><path class="speech-bubble-outline" transform="scale(1,1) " d="M 0 0 L 30 20 L 613.6669921875 20 A 10 10 0 0 1 623.6669921875 30 L 623.6669921875 280 A 10 10 0 0 1 613.6669921875 290 L 30 290 A 10 10 0 0 1 20 280 L 20 30 Z" fill="rgb(255, 255, 255)" stroke="rgb(0, 0, 0)" stroke-width="3px"/><text class="speech-bubble-content property-key" x="421.89453125" y="55" alignment-baseline="central" text-anchor="end" font-size="50px" font-family="&quot;Gill Sans&quot;, &quot;Gill Sans MT&quot;, Calibri, sans-serif" xml:space="preserve">type_payment: </text><text class="speech-bubble-content property-key" x="421.89453125" y="105" alignment-baseline="central" text-anchor="end" font-size="50px" font-family="&quot;Gill Sans&quot;, &quot;Gill Sans MT&quot;, Calibri, sans-serif" xml:space="preserve">quantity_parcels: </text><text class="speech-bubble-content property-key" x="421.89453125" y="155" alignment-baseline="central" text-anchor="end" font-size="50px" font-family="&quot;Gill Sans&quot;, &quot;Gill Sans MT&quot;, Calibri, sans-serif" xml:space="preserve">total_sale: </text><text class="speech-bubble-content property-key" x="421.89453125" y="205" alignment-baseline="central" text-anchor="end" font-size="50px" font-family="&quot;Gill Sans&quot;, &quot;Gill Sans MT&quot;, Calibri, sans-serif" xml:space="preserve">quantity_sale: </text><text class="speech-bubble-content property-key" x="421.89453125" y="255" alignment-baseline="central" text-anchor="end" font-size="50px" font-family="&quot;Gill Sans&quot;, &quot;Gill Sans MT&quot;, Calibri, sans-serif" xml:space="preserve">date: </text><text class="speech-bubble-content property-value" x="421.89453125" y="55" alignment-baseline="central" font-size="50px" font-family="&quot;Gill Sans&quot;, &quot;Gill Sans MT&quot;, Calibri, sans-serif">string,</text><text class="speech-bubble-content property-value" x="421.89453125" y="105" alignment-baseline="central" font-size="50px" font-family="&quot;Gill Sans&quot;, &quot;Gill Sans MT&quot;, Calibri, sans-serif">integer,</text><text class="speech-bubble-content property-value" x="421.89453125" y="155" alignment-baseline="central" font-size="50px" font-family="&quot;Gill Sans&quot;, &quot;Gill Sans MT&quot;, Calibri, sans-serif">number,</text><text class="speech-bubble-content property-value" x="421.89453125" y="205" alignment-baseline="central" font-size="50px" font-family="&quot;Gill Sans&quot;, &quot;Gill Sans MT&quot;, Calibri, sans-serif">number,</text><text class="speech-bubble-content property-value" x="421.89453125" y="255" alignment-baseline="central" font-size="50px" font-family="&quot;Gill Sans&quot;, &quot;Gill Sans MT&quot;, Calibri, sans-serif">datetime</text></g><g class="speech-bubble node-speech-bubble" transform="translate(-624.279636507477,866.0749214039902) "><path class="speech-bubble-outline" transform="scale(1,-1) " d="M 0 0 L -10 20 L -157.0068359375 20 A 10 10 0 0 0 -167.0068359375 30 L -167.0068359375 130 A 10 10 0 0 0 -157.0068359375 140 L 157.0068359375 140 A 10 10 0 0 0 167.0068359375 130 L 167.0068359375 30 A 10 10 0 0 0 157.0068359375 20 L 10 20 Z" fill="rgb(255, 255, 255)" stroke="rgb(0, 0, 0)" stroke-width="3px"/><text class="speech-bubble-content property-key" x="20.849609375" y="-105" alignment-baseline="central" text-anchor="end" font-size="50px" font-family="&quot;Gill Sans&quot;, &quot;Gill Sans MT&quot;, Calibri, sans-serif" xml:space="preserve">name: </text><text class="speech-bubble-content property-key" x="20.849609375" y="-55" alignment-baseline="central" text-anchor="end" font-size="50px" font-family="&quot;Gill Sans&quot;, &quot;Gill Sans MT&quot;, Calibri, sans-serif" xml:space="preserve">adress: </text><text class="speech-bubble-content property-value" x="20.849609375" y="-105" alignment-baseline="central" font-size="50px" font-family="&quot;Gill Sans&quot;, &quot;Gill Sans MT&quot;, Calibri, sans-serif">string,</text><text class="speech-bubble-content property-value" x="20.849609375" y="-55" alignment-baseline="central" font-size="50px" font-family="&quot;Gill Sans&quot;, &quot;Gill Sans MT&quot;, Calibri, sans-serif">string</text></g><g class="speech-bubble relationship-speech-bubble" transform="translate(-624.279636507477,1269.6727398120602) "><path class="speech-bubble-outline" transform="scale(-1,1) " d="M 0 0 L 20 -10 L 20 -75 A 10 10 0 0 1 30 -85 L 666.5478515625 -85 A 10 10 0 0 1 676.5478515625 -75 L 676.5478515625 75 A 10 10 0 0 1 666.5478515625 85 L 30 85 A 10 10 0 0 1 20 75 L 20 10 Z" fill="rgb(255, 255, 255)" stroke="rgb(0, 0, 0)" stroke-width="3px"/><text class="speech-bubble-content property-key" x="-210.6640625" y="-50" alignment-baseline="central" text-anchor="end" font-size="50px" font-family="&quot;Gill Sans&quot;, &quot;Gill Sans MT&quot;, Calibri, sans-serif" xml:space="preserve">quantity_disponible: </text><text class="speech-bubble-content property-key" x="-210.6640625" y="0" alignment-baseline="central" text-anchor="end" font-size="50px" font-family="&quot;Gill Sans&quot;, &quot;Gill Sans MT&quot;, Calibri, sans-serif" xml:space="preserve">sum_quantity_sale: </text><text class="speech-bubble-content property-key" x="-210.6640625" y="50" alignment-baseline="central" text-anchor="end" font-size="50px" font-family="&quot;Gill Sans&quot;, &quot;Gill Sans MT&quot;, Calibri, sans-serif" xml:space="preserve">sales_count: </text><text class="speech-bubble-content property-value" x="-210.6640625" y="-50" alignment-baseline="central" font-size="50px" font-family="&quot;Gill Sans&quot;, &quot;Gill Sans MT&quot;, Calibri, sans-serif">integer,</text><text class="speech-bubble-content property-value" x="-210.6640625" y="0" alignment-baseline="central" font-size="50px" font-family="&quot;Gill Sans&quot;, &quot;Gill Sans MT&quot;, Calibri, sans-serif">number,</text><text class="speech-bubble-content property-value" x="-210.6640625" y="50" alignment-baseline="central" font-size="50px" font-family="&quot;Gill Sans&quot;, &quot;Gill Sans MT&quot;, Calibri, sans-serif">integer</text></g><g class="speech-bubble relationship-speech-bubble" transform="translate(258.1267931984921,1532.7459719848341) "><path class="speech-bubble-outline" transform="scale(-1,1) " d="M 0 0 L 30 20 L 346.8701171875 20 A 10 10 0 0 1 356.8701171875 30 L 356.8701171875 80 A 10 10 0 0 1 346.8701171875 90 L 30 90 A 10 10 0 0 1 20 80 L 20 30 Z" fill="rgb(255, 255, 255)" stroke="rgb(0, 0, 0)" stroke-width="3px"/><text class="speech-bubble-content property-key" x="-221.7724609375" y="55" alignment-baseline="central" text-anchor="end" font-size="50px" font-family="&quot;Gill Sans&quot;, &quot;Gill Sans MT&quot;, Calibri, sans-serif" xml:space="preserve">date: </text><text class="speech-bubble-content property-value" x="-221.7724609375" y="55" alignment-baseline="central" font-size="50px" font-family="&quot;Gill Sans&quot;, &quot;Gill Sans MT&quot;, Calibri, sans-serif">datetime</text></g><g class="speech-bubble relationship-speech-bubble" transform="translate(-1476.912477778667,1869.9176314436618) "><path class="speech-bubble-outline" transform="scale(1,1) " d="M 0 0 L 30 20 L 477.509765625 20 A 10 10 0 0 1 487.509765625 30 L 487.509765625 80 A 10 10 0 0 1 477.509765625 90 L 30 90 A 10 10 0 0 1 20 80 L 20 30 Z" fill="rgb(255, 255, 255)" stroke="rgb(0, 0, 0)" stroke-width="3px"/><text class="speech-bubble-content property-key" x="324.62890625" y="55" alignment-baseline="central" text-anchor="end" font-size="50px" font-family="&quot;Gill Sans&quot;, &quot;Gill Sans MT&quot;, Calibri, sans-serif" xml:space="preserve">sales_count: </text><text class="speech-bubble-content property-value" x="324.62890625" y="55" alignment-baseline="central" font-size="50px" font-family="&quot;Gill Sans&quot;, &quot;Gill Sans MT&quot;, Calibri, sans-serif">integer</text></g><g class="speech-bubble relationship-speech-bubble" transform="translate(-1438.1043284884072,1511.440380091575) "><path class="speech-bubble-outline" transform="scale(1,1) " d="M 0 0 L 30 20 L 563.6181640625 20 A 10 10 0 0 1 573.6181640625 30 L 573.6181640625 80 A 10 10 0 0 1 563.6181640625 90 L 30 90 A 10 10 0 0 1 20 80 L 20 30 Z" fill="rgb(255, 255, 255)" stroke="rgb(0, 0, 0)" stroke-width="3px"/><text class="speech-bubble-content property-key" x="394.0869140625" y="55" alignment-baseline="central" text-anchor="end" font-size="50px" font-family="&quot;Gill Sans&quot;, &quot;Gill Sans MT&quot;, Calibri, sans-serif" xml:space="preserve">sum_total_sale: </text><text class="speech-bubble-content property-value" x="394.0869140625" y="55" alignment-baseline="central" font-size="50px" font-family="&quot;Gill Sans&quot;, &quot;Gill Sans MT&quot;, Calibri, sans-serif">number</text></g><g class="speech-bubble relationship-speech-bubble" transform="translate(1103.1540174006475,1312.2876104734028) "><path class="speech-bubble-outline" transform="scale(-1,1) " d="M 0 0 L 20 -10 L 20 -100 A 10 10 0 0 1 30 -110 L 527.3876953125 -110 A 10 10 0 0 1 537.3876953125 -100 L 537.3876953125 100 A 10 10 0 0 1 527.3876953125 110 L 30 110 A 10 10 0 0 1 20 100 L 20 10 Z" fill="rgb(255, 255, 255)" stroke="rgb(0, 0, 0)" stroke-width="3px"/><text class="speech-bubble-content property-key" x="-235.6640625" y="-75" alignment-baseline="central" text-anchor="end" font-size="50px" font-family="&quot;Gill Sans&quot;, &quot;Gill Sans MT&quot;, Calibri, sans-serif" xml:space="preserve">commission: </text><text class="speech-bubble-content property-key" x="-235.6640625" y="-25" alignment-baseline="central" text-anchor="end" font-size="50px" font-family="&quot;Gill Sans&quot;, &quot;Gill Sans MT&quot;, Calibri, sans-serif" xml:space="preserve">date: </text><text class="speech-bubble-content property-key" x="-235.6640625" y="25" alignment-baseline="central" text-anchor="end" font-size="50px" font-family="&quot;Gill Sans&quot;, &quot;Gill Sans MT&quot;, Calibri, sans-serif" xml:space="preserve">product_id: </text><text class="speech-bubble-content property-key" x="-235.6640625" y="75" alignment-baseline="central" text-anchor="end" font-size="50px" font-family="&quot;Gill Sans&quot;, &quot;Gill Sans MT&quot;, Calibri, sans-serif" xml:space="preserve">client_id: </text><text class="speech-bubble-content property-value" x="-235.6640625" y="-75" alignment-baseline="central" font-size="50px" font-family="&quot;Gill Sans&quot;, &quot;Gill Sans MT&quot;, Calibri, sans-serif">number,</text><text class="speech-bubble-content property-value" x="-235.6640625" y="-25" alignment-baseline="central" font-size="50px" font-family="&quot;Gill Sans&quot;, &quot;Gill Sans MT&quot;, Calibri, sans-serif">datetime,</text><text class="speech-bubble-content property-value" x="-235.6640625" y="25" alignment-baseline="central" font-size="50px" font-family="&quot;Gill Sans&quot;, &quot;Gill Sans MT&quot;, Calibri, sans-serif">integer,</text><text class="speech-bubble-content property-value" x="-235.6640625" y="75" alignment-baseline="central" font-size="50px" font-family="&quot;Gill Sans&quot;, &quot;Gill Sans MT&quot;, Calibri, sans-serif">integer</text></g><g class="speech-bubble relationship-speech-bubble" transform="translate(260.8496322147946,756.3324968413561) "><path class="speech-bubble-outline" transform="scale(1,1) " d="M 0 0 L 30 20 L 680.3662109375 20 A 10 10 0 0 1 690.3662109375 30 L 690.3662109375 180 A 10 10 0 0 1 680.3662109375 190 L 30 190 A 10 10 0 0 1 20 180 L 20 30 Z" fill="rgb(255, 255, 255)" stroke="rgb(0, 0, 0)" stroke-width="3px"/><text class="speech-bubble-content property-key" x="474.7021484375" y="55" alignment-baseline="central" text-anchor="end" font-size="50px" font-family="&quot;Gill Sans&quot;, &quot;Gill Sans MT&quot;, Calibri, sans-serif" xml:space="preserve">since: </text><text class="speech-bubble-content property-key" x="474.7021484375" y="105" alignment-baseline="central" text-anchor="end" font-size="50px" font-family="&quot;Gill Sans&quot;, &quot;Gill Sans MT&quot;, Calibri, sans-serif" xml:space="preserve">sum_quantity_sale: </text><text class="speech-bubble-content property-key" x="474.7021484375" y="155" alignment-baseline="central" text-anchor="end" font-size="50px" font-family="&quot;Gill Sans&quot;, &quot;Gill Sans MT&quot;, Calibri, sans-serif" xml:space="preserve">sales_count: </text><text class="speech-bubble-content property-value" x="474.7021484375" y="55" alignment-baseline="central" font-size="50px" font-family="&quot;Gill Sans&quot;, &quot;Gill Sans MT&quot;, Calibri, sans-serif">datetime,</text><text class="speech-bubble-content property-value" x="474.7021484375" y="105" alignment-baseline="central" font-size="50px" font-family="&quot;Gill Sans&quot;, &quot;Gill Sans MT&quot;, Calibri, sans-serif">number,</text><text class="speech-bubble-content property-value" x="474.7021484375" y="155" alignment-baseline="central" font-size="50px" font-family="&quot;Gill Sans&quot;, &quot;Gill Sans MT&quot;, Calibri, sans-serif">integer</text></g><g class="speech-bubble relationship-speech-bubble" transform="translate(-2278.315933634056,1334.4493326192805) "><path class="speech-bubble-outline" transform="scale(1,1) " d="M 0 0 L 20 -10 L 20 -25 A 10 10 0 0 1 30 -35 L 366.279296875 -35 A 10 10 0 0 1 376.279296875 -25 L 376.279296875 25 A 10 10 0 0 1 366.279296875 35 L 30 35 A 10 10 0 0 1 20 25 L 20 10 Z" fill="rgb(255, 255, 255)" stroke="rgb(0, 0, 0)" stroke-width="3px"/><text class="speech-bubble-content property-key" x="174.5068359375" y="0" alignment-baseline="central" text-anchor="end" font-size="50px" font-family="&quot;Gill Sans&quot;, &quot;Gill Sans MT&quot;, Calibri, sans-serif" xml:space="preserve">since: </text><text class="speech-bubble-content property-value" x="174.5068359375" y="0" alignment-baseline="central" font-size="50px" font-family="&quot;Gill Sans&quot;, &quot;Gill Sans MT&quot;, Calibri, sans-serif">datetime</text></g><g class="speech-bubble relationship-speech-bubble" transform="translate(-575.0708080970389,568.4974021911622) "><path class="speech-bubble-outline" transform="scale(1,1) " d="M 0 0 L -10 20 L -168.1396484375 20 A 10 10 0 0 0 -178.1396484375 30 L -178.1396484375 80 A 10 10 0 0 0 -168.1396484375 90 L 168.1396484375 90 A 10 10 0 0 0 178.1396484375 80 L 178.1396484375 30 A 10 10 0 0 0 168.1396484375 20 L 10 20 Z" fill="rgb(255, 255, 255)" stroke="rgb(0, 0, 0)" stroke-width="3px"/><text class="speech-bubble-content property-key" x="-23.6328125" y="55" alignment-baseline="central" text-anchor="end" font-size="50px" font-family="&quot;Gill Sans&quot;, &quot;Gill Sans MT&quot;, Calibri, sans-serif" xml:space="preserve">since: </text><text class="speech-bubble-content property-value" x="-23.6328125" y="55" alignment-baseline="central" font-size="50px" font-family="&quot;Gill Sans&quot;, &quot;Gill Sans MT&quot;, Calibri, sans-serif">datetime</text></g><g class="speech-bubble node-speech-bubble" transform="translate(-2347.102117162901,104.20664978027449) "><path class="speech-bubble-outline" transform="scale(-1,1) " d="M 0 0 L 20 -10 L 20 -75 A 10 10 0 0 1 30 -85 L 357.9052734375 -85 A 10 10 0 0 1 367.9052734375 -75 L 367.9052734375 75 A 10 10 0 0 1 357.9052734375 85 L 30 85 A 10 10 0 0 1 20 75 L 20 10 Z" fill="rgb(255, 255, 255)" stroke="rgb(0, 0, 0)" stroke-width="3px"/><text class="speech-bubble-content property-key" x="-166.1572265625" y="-50" alignment-baseline="central" text-anchor="end" font-size="50px" font-family="&quot;Gill Sans&quot;, &quot;Gill Sans MT&quot;, Calibri, sans-serif" xml:space="preserve">name: </text><text class="speech-bubble-content property-key" x="-166.1572265625" y="0" alignment-baseline="central" text-anchor="end" font-size="50px" font-family="&quot;Gill Sans&quot;, &quot;Gill Sans MT&quot;, Calibri, sans-serif" xml:space="preserve">state: </text><text class="speech-bubble-content property-key" x="-166.1572265625" y="50" alignment-baseline="central" text-anchor="end" font-size="50px" font-family="&quot;Gill Sans&quot;, &quot;Gill Sans MT&quot;, Calibri, sans-serif" xml:space="preserve">country: </text><text class="speech-bubble-content property-value" x="-166.1572265625" y="-50" alignment-baseline="central" font-size="50px" font-family="&quot;Gill Sans&quot;, &quot;Gill Sans MT&quot;, Calibri, sans-serif">string,</text><text class="speech-bubble-content property-value" x="-166.1572265625" y="0" alignment-baseline="central" font-size="50px" font-family="&quot;Gill Sans&quot;, &quot;Gill Sans MT&quot;, Calibri, sans-serif">string,</text><text class="speech-bubble-content property-value" x="-166.1572265625" y="50" alignment-baseline="central" font-size="50px" font-family="&quot;Gill Sans&quot;, &quot;Gill Sans MT&quot;, Calibri, sans-serif">string</text></g><g class="speech-bubble relationship-speech-bubble" transform="translate(-575.1870903139088,338.053758750098) "><path class="speech-bubble-outline" transform="scale(-1,1) " d="M 0 0 L 30 20 L 380.1708984375 20 A 10 10 0 0 1 390.1708984375 30 L 390.1708984375 130 A 10 10 0 0 1 380.1708984375 140 L 30 140 A 10 10 0 0 1 20 130 L 20 30 Z" fill="rgb(255, 255, 255)" stroke="rgb(0, 0, 0)" stroke-width="3px"/><text class="speech-bubble-content property-key" x="-235.6640625" y="55" alignment-baseline="central" text-anchor="end" font-size="50px" font-family="&quot;Gill Sans&quot;, &quot;Gill Sans MT&quot;, Calibri, sans-serif" xml:space="preserve">since: </text><text class="speech-bubble-content property-key" x="-235.6640625" y="105" alignment-baseline="central" text-anchor="end" font-size="50px" font-family="&quot;Gill Sans&quot;, &quot;Gill Sans MT&quot;, Calibri, sans-serif" xml:space="preserve">until: </text><text class="speech-bubble-content property-value" x="-235.6640625" y="55" alignment-baseline="central" font-size="50px" font-family="&quot;Gill Sans&quot;, &quot;Gill Sans MT&quot;, Calibri, sans-serif">datetime,</text><text class="speech-bubble-content property-value" x="-235.6640625" y="105" alignment-baseline="central" font-size="50px" font-family="&quot;Gill Sans&quot;, &quot;Gill Sans MT&quot;, Calibri, sans-serif">datetime</text></g></g><g class="layer overlay"><circle class="node overlay" r="112.71102322982364" stroke="none" fill="rgba(255, 255, 255, 0)" cx="-624.279636507477" cy="1638.6962194919206"/><circle class="node overlay" r="91.63131248471971" stroke="none" fill="rgba(255, 255, 255, 0)" cx="-2278.315933634056" cy="2087.2463920032737"/><circle class="node overlay" r="79.76588348951427" stroke="none" fill="rgba(255, 255, 255, 0)" cx="1103.1540174006475" cy="568.4974021911622"/><circle class="node overlay" r="72.78618352884476" stroke="none" fill="rgba(255, 255, 255, 0)" cx="-2278.315933634056" cy="568.4974021911622"/><circle class="node overlay" r="78.93445673714466" stroke="none" fill="rgba(255, 255, 255, 0)" cx="1103.1540174006475" cy="2087.2463920032737"/><circle class="node overlay" r="91.6426809790168" stroke="none" fill="rgba(255, 255, 255, 0)" cx="-624.279636507477" cy="953.7176023830069"/><circle class="node ring" r="117.71102322982364" fill="none" stroke="rgba(255, 255, 255, 0)" stroke-width="10px" cx="-624.279636507477" cy="1638.6962194919206"/><circle class="node ring" r="96.63131248471971" fill="none" stroke="rgba(255, 255, 255, 0)" stroke-width="10px" cx="-2278.315933634056" cy="2087.2463920032737"/><circle class="node ring" r="84.76588348951427" fill="none" stroke="rgba(255, 255, 255, 0)" stroke-width="10px" cx="1103.1540174006475" cy="568.4974021911622"/><circle class="node ring" r="77.78618352884476" fill="none" stroke="rgba(255, 255, 255, 0)" stroke-width="10px" cx="-2278.315933634056" cy="568.4974021911622"/><circle class="node ring" r="83.93445673714466" fill="none" stroke="rgba(255, 255, 255, 0)" stroke-width="10px" cx="1103.1540174006475" cy="2087.2463920032737"/><circle class="node ring" r="96.6426809790168" fill="none" stroke="rgba(255, 255, 255, 0)" stroke-width="10px" cx="-624.279636507477" cy="953.7176023830069"/><path class="relationship overlay" fill="rgba(255, 255, 255, 0)" stroke="rgba(255, 255, 255, 0)" stroke-width="10px" transform="translate(1103.1540174006475,2087.2463920032737) rotate(-165.44388478072938)" d="M 89.93445673714466 4 L 1629.0086426881433 4 L 1629.0086426881433 16 L 1661.0086426881433 0 L 1629.0086426881433 -16 L 1629.0086426881433 -4 L 89.93445673714466 -4 Z"/><path class="relationship overlay" fill="rgba(255, 255, 255, 0)" stroke="rgba(255, 255, 255, 0)" stroke-width="10px" transform="translate(-624.279636507477,953.7176023830069) rotate(90)" d="M 102.6426809790168 4 L 529.2675938790899 4 L 529.2675938790899 16 L 561.2675938790899 0 L 529.2675938790899 -16 L 529.2675938790899 -4 L 102.6426809790168 -4 Z"/><path class="relationship overlay" fill="rgba(255, 255, 255, 0)" stroke="rgba(255, 255, 255, 0)" stroke-width="10px" transform="translate(1103.1540174006475,2087.2463920032737) rotate(-146.72741991959714)" d="M 89.93445673714466 4 L 1931.4924901925988 4 L 1931.4924901925988 16 L 1963.4924901925988 0 L 1931.4924901925988 -16 L 1931.4924901925988 -4 L 89.93445673714466 -4 Z"/><path class="relationship overlay" fill="rgba(255, 255, 255, 0)" stroke="rgba(255, 255, 255, 0)" stroke-width="10px" transform="translate(-2278.315933634056,2087.2463920032737) rotate(-15.172849402783877)" d="M 102.63131248471971 4 L 1558.0664796777648 4 L 1558.0664796777648 16 L 1590.0664796777648 0 L 1558.0664796777648 -16 L 1558.0664796777648 -4 L 102.63131248471971 -4 Z"/><path class="relationship overlay" fill="rgba(255, 255, 255, 0)" stroke="rgba(255, 255, 255, 0)" stroke-width="10px" transform="translate(1103.1540174006475,2087.2463920032737) rotate(180)" d="M 89.93445673714466 4 L 3246.838638549984 4 L 3246.838638549984 16 L 3278.838638549984 0 L 3246.838638549984 -16 L 3246.838638549984 -4 L 89.93445673714466 -4 Z"/><path class="relationship overlay" fill="rgba(255, 255, 255, 0)" stroke="rgba(255, 255, 255, 0)" stroke-width="10px" transform="translate(-624.279636507477,953.7176023830069) rotate(145.5767415151371)" d="M 102.6426809790168 4 L 1870.5428916956032 4 L 1870.5428916956032 16 L 1902.5428916956032 0 L 1870.5428916956032 -16 L 1870.5428916956032 -4 L 102.6426809790168 -4 Z"/><path class="relationship overlay" fill="rgba(255, 255, 255, 0)" stroke="rgba(255, 255, 255, 0)" stroke-width="10px" transform="translate(1103.1540174006475,568.4974021911622) rotate(90)" d="M 90.76588348951427 4 L 1396.8145330749667 4 L 1396.8145330749667 16 L 1428.8145330749667 0 L 1396.8145330749667 -16 L 1396.8145330749667 -4 L 90.76588348951427 -4 Z"/><path class="relationship overlay" fill="rgba(255, 255, 255, 0)" stroke="rgba(255, 255, 255, 0)" stroke-width="10px" transform="translate(1103.1540174006475,568.4974021911622) rotate(167.42865416240923)" d="M 90.76588348951427 4 L 1635.222181458288 4 L 1635.222181458288 16 L 1667.222181458288 0 L 1635.222181458288 -16 L 1635.222181458288 -4 L 90.76588348951427 -4 Z"/><path class="relationship overlay" fill="rgba(255, 255, 255, 0)" stroke="rgba(255, 255, 255, 0)" stroke-width="10px" transform="translate(-2278.315933634056,2087.2463920032737) rotate(-90)" d="M 102.63131248471971 4 L 1402.9628062832667 4 L 1402.9628062832667 16 L 1434.9628062832667 0 L 1402.9628062832667 -16 L 1402.9628062832667 -4 L 102.63131248471971 -4 Z"/><path class="relationship overlay" fill="rgba(255, 255, 255, 0)" stroke="rgba(255, 255, 255, 0)" stroke-width="10px" transform="translate(-624.279636507477,953.7176023830069) rotate(-166.88968563305005)" d="M 102.6426809790168 4 L 1582.516108422753 4 L 1582.516108422753 16 L 1614.516108422753 0 L 1582.516108422753 -16 L 1582.516108422753 -4 L 102.6426809790168 -4 Z"/><path class="relationship overlay" fill="rgba(255, 255, 255, 0)" stroke="rgba(255, 255, 255, 0)" stroke-width="10px" transform="translate(1103.1540174006475,568.4974021911622) rotate(180)" d="M 90.76588348951427 4 L 3265.6837675058587 4 L 3265.6837675058587 16 L 3297.6837675058587 0 L 3265.6837675058587 -16 L 3265.6837675058587 -4 L 90.76588348951427 -4 Z"/><circle class="node overlay" r="72.78618352884476" stroke="none" fill="rgba(255, 255, 255, 0)" cx="-2278.315933634056" cy="104.20664978027449"/><circle class="node ring" r="77.78618352884476" fill="none" stroke="rgba(255, 255, 255, 0)" stroke-width="10px" cx="-2278.315933634056" cy="104.20664978027449"/><path class="relationship overlay" fill="rgba(255, 255, 255, 0)" stroke="rgba(255, 255, 255, 0)" stroke-width="10px" transform="translate(1103.1540174006475,568.4974021911622) rotate(-172.18192205686032)" d="M 90.76588348951427 4 L 3297.4095232135783 4 L 3297.4095232135783 16 L 3329.4095232135783 0 L 3297.4095232135783 -16 L 3297.4095232135783 -4 L 90.76588348951427 -4 Z"/></g></svg>